<svg xmlns="http://www.w3.org/2000/svg" viewBox="0 0 128 128" fill="none" role="img" aria-label="JosspaTech">
  <circle cx="64" cy="64" r="13" fill="#0C3358"/>
  <path d="M57.2,57.0 57.5,62.8 57.0,68.2 58.4,71.0 61.0,71.6" stroke="#0C3358" stroke-width="0.9" fill="none" stroke-linecap="round" opacity="0.4"/>
  <path d="M60.6,56.4 66.0,56.1 71.2,56.8 M66.0,56.1 66.2,70.2" stroke="#0C3358" stroke-width="0.9" fill="none" stroke-linecap="round" opacity="0.4"/>
  <ellipse cx="64" cy="64" rx="44" ry="19.5" stroke="#0C3358" stroke-width="4.5" transform="rotate(-28 64 64)"/>
  <path d="M97.4,31.9 100.3,37.0 105.4,39.9 100.3,42.8 97.4,47.9 94.5,42.8 89.4,39.9 94.5,37.0 Z" fill="#0C3358"/>
  <path d="M30.6,82.3 32.7,86.0 36.4,88.1 32.7,90.2 30.6,93.9 28.5,90.2 24.8,88.1 28.5,86.0 Z" fill="#0C3358"/>
</svg>