<svg xmlns="http://www.w3.org/2000/svg" viewBox="0 0 360 280" role="img" aria-label="JosspaTech">
  <g transform="translate(116 8)">
    <circle cx="64" cy="64" r="13" fill="#F0C040"/>
    <path d="M57.2,57.0 57.5,62.8 57.0,68.2 58.4,71.0 61.0,71.6" stroke="#B8860B" stroke-width="0.9" fill="none" stroke-linecap="round" opacity="0.55"/>
    <path d="M60.6,56.4 66.0,56.1 71.2,56.8 M66.0,56.1 66.2,70.2" stroke="#B8860B" stroke-width="0.9" fill="none" stroke-linecap="round" opacity="0.55"/>
    <ellipse cx="64" cy="64" rx="44" ry="19.5" fill="none" stroke="#5DADE2" stroke-width="4.5" transform="rotate(-28 64 64)"/>
    <path d="M97.4,31.9 100.3,37.0 105.4,39.9 100.3,42.8 97.4,47.9 94.5,42.8 89.4,39.9 94.5,37.0 Z" fill="#7EC8EB"/>
    <path d="M30.6,82.3 32.7,86.0 36.4,88.1 32.7,90.2 30.6,93.9 28.5,90.2 24.8,88.1 28.5,86.0 Z" fill="#7EC8EB"/>
  </g>
  <text x="180" y="168" text-anchor="middle" font-family="Georgia, 'Times New Roman', Times, serif" font-size="48" font-weight="700" letter-spacing="-1.4" fill="#FFFFFF">Josspa<tspan fill="#F0C040">Tech</tspan></text>
  <line x1="132" y1="186" x2="228" y2="186" stroke="#F0C040" stroke-width="1.6" stroke-linecap="round"/>
  <text x="180" y="214" text-anchor="middle" font-family="Manrope, 'Segoe UI', Arial, sans-serif" font-size="11" font-weight="700" letter-spacing="3.2" fill="rgba(255,255,255,0.55)">TOOLS WORTH KEEPING.</text>
</svg>