<!-- PAL monogram — ledger doubloon + sage PAL wordmark (512×256). -->
<svg xmlns="http://www.w3.org/2000/svg" width="512" height="256" viewBox="0 0 512 256" role="img" aria-label="PAL">
  <defs>
    <linearGradient id="gold" x1="0.3" y1="0.05" x2="0.7" y2="1">
      <stop offset="0%" stop-color="#E2C44E"/>
      <stop offset="42%" stop-color="#C9A227"/>
      <stop offset="100%" stop-color="#B08E1A"/>
    </linearGradient>
    <linearGradient id="rim" x1="0.3" y1="0" x2="0.7" y2="1">
      <stop offset="0%" stop-color="#C9A227"/>
      <stop offset="55%" stop-color="#A8871C"/>
      <stop offset="100%" stop-color="#8F7114"/>
    </linearGradient>
  </defs>

  <g transform="translate(96 128)">
    <circle r="86" fill="url(#rim)"/>
    <circle r="76" fill="url(#gold)"/>
    <ellipse cx="-10" cy="-22" rx="42" ry="20" fill="#F0DC78" opacity="0.16"/>
    <g fill="none">
      <circle r="67" stroke="#D4B84A" stroke-width="1.6" transform="translate(1.4 1.4)" opacity="0.65"/>
      <circle r="67" stroke="#241C04" stroke-width="1.9" transform="translate(-1.4 -1.4)" opacity="1"/>
    </g>
    <g fill="none" stroke-linecap="round" stroke-linejoin="round">
      <rect x="-28" y="-36" width="56" height="72" rx="4" fill="#241C04" opacity="0.32"/>
      <g stroke="#241C04" stroke-width="2.5" opacity="0.72">
        <rect x="-30" y="-38" width="60" height="76" rx="5"/>
        <path d="M14 -38 L30 -38 L14 -22"/>
        <path d="M-16 -28 V28"/>
        <path d="M-8 -16 H24"/>
        <path d="M-8 0 H24"/>
        <path d="M-8 16 H18"/>
      </g>
      <g transform="translate(1.5 1.5)" stroke="#D8BC52" stroke-width="1.4" opacity="0.68">
        <rect x="-30" y="-38" width="60" height="76" rx="5"/>
        <path d="M14 -38 L30 -38 L14 -22"/>
        <path d="M-16 -28 V28"/>
        <path d="M-8 -16 H24"/>
        <path d="M-8 0 H24"/>
        <path d="M-8 16 H18"/>
      </g>
      <g transform="translate(-1.5 -1.5)" stroke="#1A1403" stroke-width="1.8" opacity="1">
        <rect x="-30" y="-38" width="60" height="76" rx="5"/>
        <path d="M14 -38 L30 -38 L14 -22"/>
        <path d="M-16 -28 V28"/>
        <path d="M-8 -16 H24"/>
        <path d="M-8 0 H24"/>
        <path d="M-8 16 H18"/>
      </g>
    </g>
    <path d="M14 -38 L30 -38 L14 -22 Z" fill="#1A1403" opacity="0.72"/>
    <path d="M15.5 -36 L27 -36 L15.5 -24.5 Z" fill="#D8BC52" opacity="0.32"/>
  </g>

  <text x="200" y="168" font-family="Arial Black, Segoe UI Black, Impact, sans-serif" font-weight="900" font-size="108" fill="#5B7B6A" letter-spacing="4">PAL</text>
</svg>
