<?xml version="1.0" encoding="UTF-8"?>
<svg xmlns="http://www.w3.org/2000/svg" viewBox="0 0 400 760" width="400" height="760" font-family="-apple-system,BlinkMacSystemFont,'Segoe UI',Roboto,sans-serif">
  <rect width="400" height="760" rx="32" fill="#EDF2F7"/>
  <rect x="0" y="700" width="400" height="60" fill="#fff"/>
  <text x="50" y="738" text-anchor="middle" font-size="10" fill="#8AAABB">Home</text>
  <text x="130" y="738" text-anchor="middle" font-size="10" fill="#8AAABB">Trans</text>
  <text x="210" y="738" text-anchor="middle" font-size="10" fill="#8AAABB">Plan</text>
  <rect x="255" y="708" width="90" height="36" rx="18" fill="#FBF7E9" stroke="#F0C040" stroke-width="2"/>
  <text x="300" y="731" text-anchor="middle" font-size="11" font-weight="800" fill="#1A4F7A">Progress</text>
  <text x="200" y="48" text-anchor="middle" font-size="22" font-weight="700" fill="#1A4F7A" font-family="Georgia,serif">Debt Payoff</text>
  <rect x="24" y="70" width="352" height="44" rx="10" fill="#fff"/>
  <text x="44" y="98" font-size="14" font-weight="700" fill="#1A4F7A">Strategy</text>
  <rect x="200" y="82" width="80" height="24" rx="12" fill="#1A4F7A"/>
  <text x="240" y="99" text-anchor="middle" font-size="11" font-weight="700" fill="#F0C040">Avalanche</text>
  <rect x="24" y="130" width="352" height="70" rx="12" fill="#fff"/>
  <text x="44" y="158" font-size="14" font-weight="600" fill="#1A4F7A">Visa **** 4821</text>
  <text x="44" y="178" font-size="11" fill="#5A7A9A">$4,200 &bull; 19.9% APR</text>
  <text x="356" y="168" text-anchor="end" font-size="14" font-weight="700" fill="#C0392B">$89/mo</text>
  <rect x="24" y="210" width="352" height="70" rx="12" fill="#fff"/>
  <text x="44" y="238" font-size="14" font-weight="600" fill="#1A4F7A">Student Loan</text>
  <text x="44" y="258" font-size="11" fill="#5A7A9A">$12,400 &bull; 5.2% APR</text>
  <rect x="24" y="300" width="352" height="120" rx="14" fill="#1A4F7A"/>
  <text x="200" y="340" text-anchor="middle" font-size="13" fill="#F0C040" font-weight="700">DEBT-FREE DATE</text>
  <text x="200" y="385" text-anchor="middle" font-size="36" font-weight="900" fill="#fff" font-family="Georgia,serif">Mar 2027</text>
  <text x="200" y="410" text-anchor="middle" font-size="12" fill="#8AAABB">Save $2,840 in interest</text>
  <rect x="24" y="440" width="352" height="56" rx="12" fill="#fff" stroke="#F0C040" stroke-width="2"/>
  <text x="200" y="474" text-anchor="middle" font-size="15" font-weight="700" fill="#1A4F7A">What-If: +$100/mo</text>
</svg>
